# xmcd
#
# Track frame offsets:
#	150
#	14839
#	32775
#	49542
#	66112
#	78800
#	94636
#	110215
#	126368
#	144154
#	159017
#	172299
#	184852
#
# Disc length: 2698 seconds
#
# Revision: 1
# Processed by: cddbd v1.5.2PL0 Copyright (c) Steve Scherf et al.
# Submitted via: audiograbber 1.83.01
#
DISCID=ac0a880d
DTITLE=Diamond Doug - Musical Mirisry Diamond Doug
DYEAR=1900
DGENRE=
TTITLE0=Let Go, Let God, Youre There
TTITLE1=For God압 Eyes Only
TTITLE2=Them Bones
TTITLE3=Agodly Man Named Joseph
TTITLE4=One With Thee
TTITLE5=Praying In The Morning
TTITLE6=Thinking Of You
TTITLE7=Learn Your Leason Well
TTITLE8=Somewhere In My Dreams
TTITLE9=The Wonder Of A Mamma압 Love
TTITLE10=My Soul압 Been Prison Too Long
TTITLE11=That압 What You Do, You Do
TTITLE12=Battle Hymn Of The Republik
EXTD=
EXTT0=
EXTT1=
EXTT2=
EXTT3=
EXTT4=
EXTT5=
EXTT6=
EXTT7=
EXTT8=
EXTT9=
EXTT10=
EXTT11=
EXTT12=
PLAYORDER=
